<svg width="155" height="50" viewBox="0 0 155 50" fill="none" xmlns="http://www.w3.org/2000/svg">
<path d="M0 35.9017V10.4754H3.7869V17.1148C4.77051 14.9181 6.16395 13.164 7.96724 11.8525C9.77052 10.541 11.8361 9.93445 14.164 10.0328V14.1148H13.8689C10.9509 14.1148 8.54101 15.1312 6.63937 17.164C4.73772 19.1968 3.7869 22.0656 3.7869 25.7706V35.9017H0Z" fill="#232323"/>
<path d="M18.1384 24.7378C18.4007 27.328 19.3679 29.3935 21.04 30.9345C22.7449 32.4427 24.7613 33.1968 27.0892 33.1968C30.1384 33.1968 32.8106 32.0001 35.1056 29.6066L37.4663 31.7214C34.6138 34.9017 31.122 36.4919 26.9909 36.4919C23.4171 36.4919 20.4007 35.2624 17.9417 32.8034C15.5154 30.3116 14.3023 27.1148 14.3023 23.2132C14.3023 19.5083 15.4662 16.3771 17.7941 13.8197C20.122 11.2295 23.0236 9.93446 26.4991 9.93446C30.1384 9.93446 33.0237 11.2131 35.1548 13.7705C37.286 16.3279 38.3516 19.541 38.3516 23.4099C38.3516 23.9017 38.3352 24.3443 38.3024 24.7378H18.1384ZM18.1384 21.6886H34.5155C34.286 19.2296 33.4663 17.1968 32.0565 15.5902C30.6794 13.9509 28.7941 13.1312 26.4007 13.1312C24.2368 13.1312 22.3843 13.9345 20.8433 15.541C19.3023 17.1476 18.4007 19.1968 18.1384 21.6886Z" fill="#232323"/>
<path d="M42.0301 35.9017V10.4754H45.817V14.9017C47.817 11.5902 50.7187 9.93446 54.5219 9.93446C57.5383 9.93446 59.9154 10.8689 61.6531 12.7377C63.3908 14.5738 64.2597 17.0328 64.2597 20.1148V35.9017H60.4728V21.0492C60.4728 18.6558 59.8498 16.7869 58.6039 15.4427C57.3908 14.0656 55.6695 13.3771 53.44 13.3771C51.2432 13.3771 49.4236 14.1148 47.9809 15.5902C46.5383 17.0656 45.817 18.9837 45.817 21.3443V35.9017H42.0301Z" fill="#232323"/>
<path d="M77.893 36.3444C75.6963 36.3444 73.9422 35.7706 72.6307 34.6231C71.352 33.4427 70.7127 31.623 70.7127 29.164V13.8197H67.1717V10.4754H70.7127V2.80328H74.4996V10.4754H82.5652V13.8197H74.4996V28.6722C74.4996 31.4919 75.9258 32.9017 78.7783 32.9017C80.0242 32.9017 81.2537 32.6067 82.4668 32.0165V35.2624C81.0898 35.9837 79.5652 36.3444 77.893 36.3444Z" fill="#232323"/>
<path d="M92.3122 36.0985L83.9023 9.93446H90.0007L95.2139 27.7378L100.968 9.83609H106.034L111.837 27.7378L117.148 9.93446H123.099L114.591 36.0985H109.279L103.476 18.3443L97.6237 36.0985H92.3122Z" fill="#232323"/>
<path d="M125.574 5.95084V0.295082H131.968V5.95084H125.574ZM125.82 35.9018V9.93446H131.771V35.9018H125.82Z" fill="#232323"/>
<path d="M136.942 35.9018V0H142.892V35.9018H136.942Z" fill="#232323"/>
<path d="M148.063 35.9018V0H154.014V35.9018H148.063Z" fill="#232323"/>
<path d="M0.143555 49.1805V43.5867H0.976672V45.0473C1.19307 44.5641 1.49962 44.1782 1.89635 43.8896C2.29307 43.6011 2.7475 43.4677 3.25963 43.4893V44.3873H3.19471C2.55274 44.3873 2.02258 44.6109 1.60422 45.0582C1.18585 45.5054 0.976672 46.1365 0.976672 46.9516V49.1805H0.143555Z" fill="#232323"/>
<path d="M14.2504 46.7244C14.3081 47.2942 14.5209 47.7487 14.8888 48.0877C15.2639 48.4195 15.7075 48.5854 16.2196 48.5854C16.8904 48.5854 17.4783 48.3221 17.9832 47.7955L18.5026 48.2608C17.875 48.9605 17.1068 49.3103 16.198 49.3103C15.4117 49.3103 14.7481 49.0398 14.2071 48.4988C13.6734 47.9506 13.4065 47.2473 13.4065 46.389C13.4065 45.5739 13.6626 44.885 14.1747 44.3224C14.6868 43.7526 15.3252 43.4677 16.0898 43.4677C16.8904 43.4677 17.5252 43.749 17.994 44.3116C18.4629 44.8742 18.6973 45.5811 18.6973 46.4323C18.6973 46.5405 18.6937 46.6378 18.6865 46.7244H14.2504ZM14.2504 46.0536H17.8534C17.8029 45.5126 17.6226 45.0654 17.3124 44.7119C17.0094 44.3513 16.5947 44.1709 16.0681 44.1709C15.5921 44.1709 15.1845 44.3477 14.8455 44.7011C14.5065 45.0546 14.3081 45.5054 14.2504 46.0536Z" fill="#232323"/>
<path d="M29.623 49.1805V43.5867H30.4561V44.528C30.925 43.8211 31.5273 43.4677 32.263 43.4677C33.0998 43.4677 33.6984 43.8391 34.0591 44.5821C34.5424 43.8391 35.1988 43.4677 36.0283 43.4677C36.6703 43.4677 37.1752 43.6696 37.5431 44.0736C37.9181 44.4775 38.1057 45.0257 38.1057 45.7182V49.1805H37.2726V45.9129C37.2726 45.3719 37.1427 44.9572 36.883 44.6686C36.6306 44.3729 36.2771 44.225 35.8227 44.225C35.3827 44.225 35.0148 44.3801 34.7191 44.6903C34.4234 45.0005 34.2755 45.4224 34.2755 45.9562V49.1805H33.4532V45.8913C33.4532 45.3719 33.3234 44.9644 33.0637 44.6686C32.8112 44.3729 32.4614 44.225 32.0142 44.225C31.567 44.225 31.1955 44.3909 30.8998 44.7227C30.604 45.0546 30.4561 45.4765 30.4561 45.9887V49.1805H29.623Z" fill="#232323"/>
<path d="M54.0233 48.4555C53.4607 49.0254 52.7646 49.3103 51.9351 49.3103C51.1056 49.3103 50.4131 49.0254 49.8577 48.4555C49.3095 47.8857 49.0354 47.1969 49.0354 46.389C49.0354 45.5883 49.3131 44.9031 49.8686 44.3332C50.4312 43.7562 51.1272 43.4677 51.9568 43.4677C52.7863 43.4677 53.4787 43.7526 54.0341 44.3224C54.5896 44.8923 54.8673 45.5811 54.8673 46.389C54.8673 47.1896 54.5859 47.8785 54.0233 48.4555ZM51.9568 48.5637C52.5555 48.5637 53.0459 48.3546 53.4282 47.9362C53.8177 47.5178 54.0125 47.0021 54.0125 46.389C54.0125 45.7831 53.8105 45.2673 53.4066 44.8418C53.0099 44.4162 52.5194 44.2034 51.9351 44.2034C51.3364 44.2034 50.8459 44.4162 50.4636 44.8418C50.0813 45.2601 49.8902 45.7759 49.8902 46.389C49.8902 46.9949 50.0886 47.5106 50.4853 47.9362C50.882 48.3546 51.3725 48.5637 51.9568 48.5637Z" fill="#232323"/>
<path d="M65.8437 49.1805V43.5867H66.6768V44.5605C67.1168 43.8319 67.7552 43.4677 68.5919 43.4677C69.2555 43.4677 69.7785 43.6732 70.1607 44.0844C70.543 44.4883 70.7342 45.0293 70.7342 45.7073V49.1805H69.9011V45.9129C69.9011 45.3864 69.764 44.9752 69.4899 44.6795C69.223 44.3765 68.8444 44.225 68.3539 44.225C67.8706 44.225 67.4702 44.3873 67.1529 44.7119C66.8355 45.0365 66.6768 45.4585 66.6768 45.9778V49.1805H65.8437Z" fill="#232323"/>
<path d="M83.85 49.2778C83.3667 49.2778 82.9808 49.1516 82.6922 48.8992C82.4109 48.6395 82.2703 48.2392 82.2703 47.6982V44.3224H81.4913V43.5867H82.2703V41.8988H83.1034V43.5867H84.8778V44.3224H83.1034V47.59C83.1034 48.2103 83.4172 48.5205 84.0447 48.5205C84.3188 48.5205 84.5893 48.4555 84.8562 48.3257V49.0398C84.5532 49.1985 84.2178 49.2778 83.85 49.2778Z" fill="#232323"/>
<path d="M95.1151 48.4428L93.6396 43.7706H153.886V48.4428H95.1151Z" fill="#232323"/>
<rect x="124.623" width="7.86888" height="6.39346" fill="#FAFBFC"/>
<path d="M132 5.81735L128.803 8.85249H128.557L125.606 5.81735V0H132V5.81735Z" fill="#3AD037"/>
<circle cx="128.804" cy="3.19674" r="1.22951" fill="white"/>
</svg>
